<svg xmlns="http://www.w3.org/2000/svg" width="1200" height="630" viewBox="0 0 1200 630" role="img" aria-labelledby="title desc">
  <title id="title">РА Лидер — реклама для бизнеса в Борисоглебске</title>
  <desc id="desc">Фирменная Open Graph обложка для публичного сайта рекламного агентства Лидер.</desc>
  <defs>
    <linearGradient id="bg" x1="0" y1="0" x2="1" y2="1">
      <stop offset="0" stop-color="#0d0f12"/>
      <stop offset="0.58" stop-color="#1a1a1a"/>
      <stop offset="1" stop-color="#24282d"/>
    </linearGradient>
    <linearGradient id="accent" x1="0" y1="0" x2="1" y2="1">
      <stop offset="0" stop-color="#ff8a2a"/>
      <stop offset="1" stop-color="#ff6a00"/>
    </linearGradient>
    <filter id="shadow" x="-20%" y="-20%" width="140%" height="140%">
      <feDropShadow dx="0" dy="18" stdDeviation="22" flood-color="#000000" flood-opacity="0.35"/>
    </filter>
  </defs>
  <rect width="1200" height="630" fill="url(#bg)"/>
  <path d="M805 -80 L1280 395 L1280 710 L600 30 Z" fill="#ffffff" opacity="0.035"/>
  <path d="M905 46 L1135 276 L1092 319 L862 89 Z" fill="url(#accent)" opacity="0.92"/>
  <path d="M830 220 L1088 478 L1042 524 L784 266 Z" fill="url(#accent)" opacity="0.58"/>
  <circle cx="1030" cy="112" r="94" fill="#ff6a00" opacity="0.12"/>
  <g transform="translate(84 76)" filter="url(#shadow)">
    <rect x="0" y="0" width="1032" height="478" rx="42" fill="#ffffff" opacity="0.055"/>
    <rect x="1" y="1" width="1030" height="476" rx="41" fill="none" stroke="#ffffff" stroke-opacity="0.16"/>
  </g>
  <g transform="translate(116 112)">
    <g transform="translate(0 2)">
      <path d="M0 86 L28 86 L43 26 L15 26 Z" fill="#ff6a00"/>
      <path d="M39 86 L70 86 L91 0 L60 0 Z" fill="#ff6a00"/>
      <path d="M80 86 L111 86 L132 0 L180 0 L159 86 Z" fill="#ff6a00"/>
      <path d="M151 86 L190 86 L214 44 L174 44 Z" fill="#ffffff" opacity="0.96"/>
    </g>
    <text x="250" y="52" fill="#ffffff" font-family="Arial Black, Arial, Helvetica, sans-serif" font-size="62" font-weight="900" letter-spacing="1">ЛИДЕР</text>
    <text x="252" y="88" fill="#ff8a2a" font-family="Arial, Helvetica, sans-serif" font-size="24" font-weight="700" letter-spacing="7">РЕКЛАМНОЕ АГЕНТСТВО</text>
  </g>
  <g transform="translate(116 250)">
    <text x="0" y="0" fill="#ffffff" font-family="Arial Black, Arial, Helvetica, sans-serif" font-size="62" font-weight="900">Реклама для бизнеса</text>
    <text x="0" y="72" fill="#ffffff" font-family="Arial Black, Arial, Helvetica, sans-serif" font-size="62" font-weight="900">в Борисоглебске</text>
    <text x="0" y="132" fill="#d7dce3" font-family="Arial, Helvetica, sans-serif" font-size="31" font-weight="700">баннеры · вывески · наклейки · дизайн · соцсети</text>
  </g>
  <g transform="translate(116 500)">
    <rect x="0" y="0" width="328" height="58" rx="29" fill="url(#accent)"/>
    <text x="34" y="38" fill="#ffffff" font-family="Arial Black, Arial, Helvetica, sans-serif" font-size="24" font-weight="900">lider-bsk.ru</text>
    <text x="370" y="38" fill="#ffffff" font-family="Arial, Helvetica, sans-serif" font-size="26" font-weight="900">8 980 245-74-71</text>
  </g>
</svg>
